<svg width="62" height="41" viewBox="0 0 62 41" xmlns="http://www.w3.org/2000/svg">
<path fill-rule="evenodd" clip-rule="evenodd" d="M0 24.25C0 30.4609 5.03906 35.5 11.25 35.5H11.3258C10.4782 33.8121 10 31.9002 10 29.875C10 24.4781 13.3919 19.8891 18.1169 18.1961C18.1084 17.9641 18.1 17.732 18.1 17.5C18.1 10.9042 22.6539 5.3968 28.7357 4.05979C26.4816 1.85553 23.4008 0.5 20 0.5C13.0938 0.5 7.5 6.09375 7.5 13C7.5 13.2109 7.50781 13.4219 7.51562 13.6328C3.14062 15.1719 0 19.3438 0 24.25ZM23.25 40.5C17.0391 40.5 12 35.4609 12 29.25C12 24.3438 15.1406 20.1719 19.5156 18.6328C19.5078 18.4219 19.5 18.2109 19.5 18C19.5 11.0938 25.0938 5.5 32 5.5C36.6328 5.5 40.6719 8.01562 42.8359 11.7656C44.0234 10.9688 45.4609 10.5 47 10.5C51.1406 10.5 54.5 13.8594 54.5 18C54.5 18.9531 54.3203 19.8672 54 20.7031C58.5625 21.625 62 25.6641 62 30.5C62 36.0234 57.5234 40.5 52 40.5H23.25Z"/>
</svg>
