<svg width="16" height="21" viewBox="0 0 16 21" xmlns="http://www.w3.org/2000/svg">
<g clip-path="url(#clip0_91_2)">
<path d="M9.16699 1.3125C4.10156 1.3125 0 5.42637 0 10.5C0 15.5736 4.10156 19.6875 9.16699 19.6875C11.6525 19.6875 13.9043 18.6949 15.5572 17.0871C15.7623 16.8861 15.8156 16.5744 15.6844 16.3201C15.5531 16.0658 15.2701 15.9223 14.9871 15.9715C14.5852 16.0412 14.175 16.0781 13.7525 16.0781C9.77812 16.0781 6.5543 12.8461 6.5543 8.85938C6.5543 6.16055 8.03086 3.81035 10.217 2.57168C10.4672 2.42813 10.5943 2.14102 10.5328 1.86211C10.4713 1.5832 10.2334 1.37402 9.94629 1.34941C9.68789 1.32891 9.42949 1.3166 9.16699 1.3166V1.3125Z"/>
</g>
<defs>
<clipPath id="clip0_91_2">
<rect width="15.75" height="21"/>
</clipPath>
</defs>
</svg>
