<svg width="15" height="15" viewBox="0 0 15 15" xmlns="http://www.w3.org/2000/svg">
<g clip-path="url(#clip0_19_139)">
<path d="M8.54945 1.07156C8.84491 0.776107 9.32393 0.777731 9.6214 1.0752L13.9237 5.37752C14.2212 5.67499 14.2228 6.15401 13.9274 6.44947C13.6319 6.74493 13.1529 6.7433 12.8554 6.44584L12.3596 5.95006L10.0774 8.61546C10.362 9.56442 10.2935 10.6077 9.83271 11.5323L9.79944 11.5992C9.69132 11.8182 9.48414 11.9683 9.24475 12.006C9.00537 12.0437 8.75889 11.9641 8.58579 11.791L3.20788 6.41313C3.03478 6.24003 2.95524 5.9969 2.99294 5.75417C3.03064 5.51144 3.18236 5.30594 3.39973 5.19948L3.46662 5.16621C4.39127 4.7054 5.4345 4.63691 6.38346 4.92151L9.04886 2.63929L8.55309 2.14351C8.25562 1.84605 8.254 1.36702 8.54945 1.07156ZM4.82489 9.09845L5.90047 10.174L4.298 11.7765C4.00254 12.072 3.52352 12.0703 3.22605 11.7729C2.92859 11.4754 2.92696 10.9964 3.22242 10.7009L4.82489 9.09845Z" />
</g>
<defs>
<clipPath id="clip0_19_139">
<rect width="9.12661" height="12.0866" transform="translate(8.54639) rotate(45)"/>
</clipPath>
</defs>
</svg>
