<svg width="21" height="21" viewBox="0 0 21 21" xmlns="http://www.w3.org/2000/svg">
<g clip-path="url(#clip0_19_97)">
<path d="M14.827 0.0489063C15.032 0.135039 15.1797 0.319609 15.2207 0.536992L16.0369 4.96258L20.4625 5.77469C20.6799 5.8157 20.8645 5.96336 20.9506 6.16844C21.0367 6.37352 21.0121 6.6073 20.885 6.79187L18.3297 10.4997L20.885 14.2034C21.0121 14.388 21.0367 14.6218 20.9506 14.8268C20.8645 15.0319 20.6799 15.1796 20.4625 15.2206L16.0369 16.0368L15.2207 20.4624C15.1797 20.6798 15.032 20.8643 14.827 20.9505C14.6219 21.0366 14.3881 21.012 14.2035 20.8848L10.4998 18.3296L6.7961 20.8848C6.61153 21.012 6.37774 21.0366 6.17266 20.9505C5.96758 20.8643 5.81993 20.6798 5.77891 20.4624L4.9627 16.0368L0.537114 15.2206C0.319732 15.1796 0.135161 15.0319 0.0490283 14.8268C-0.0371045 14.6218 -0.0124951 14.388 0.114653 14.2034L2.66993 10.4997L0.114653 6.79598C-0.0124951 6.61141 -0.0371045 6.37762 0.0490283 6.17254C0.135161 5.96746 0.319732 5.8198 0.537114 5.77879L4.9627 4.96258L5.77891 0.536992C5.81993 0.319609 5.96758 0.135039 6.17266 0.0489063C6.37774 -0.0372265 6.61153 -0.0126172 6.7961 0.114531L10.4998 2.6698L14.2035 0.114531C14.3881 -0.0126172 14.6219 -0.0372265 14.827 0.0489063ZM6.56231 10.4997C6.56231 9.4554 6.97715 8.45388 7.71558 7.71545C8.454 6.97703 9.45552 6.56219 10.4998 6.56219C11.5441 6.56219 12.5456 6.97703 13.284 7.71545C14.0225 8.45388 14.4373 9.4554 14.4373 10.4997C14.4373 11.544 14.0225 12.5455 13.284 13.2839C12.5456 14.0223 11.5441 14.4372 10.4998 14.4372C9.45552 14.4372 8.454 14.0223 7.71558 13.2839C6.97715 12.5455 6.56231 11.544 6.56231 10.4997ZM15.7498 10.4997C15.7498 9.1073 15.1967 7.77194 14.2121 6.78738C13.2276 5.80281 11.8922 5.24969 10.4998 5.24969C9.10742 5.24969 7.77206 5.80281 6.7875 6.78738C5.80293 7.77194 5.24981 9.1073 5.24981 10.4997C5.24981 11.8921 5.80293 13.2274 6.7875 14.212C7.77206 15.1966 9.10742 15.7497 10.4998 15.7497C11.8922 15.7497 13.2276 15.1966 14.2121 14.212C15.1967 13.2274 15.7498 11.8921 15.7498 10.4997Z"/>
<path d="M6.56226 10.4998C6.56226 9.45547 6.9771 8.45395 7.71552 7.71552C8.45395 6.9771 9.45547 6.56226 10.4998 6.56226C11.544 6.56226 12.5456 6.9771 13.284 7.71552C14.0224 8.45395 14.4373 9.45547 14.4373 10.4998C14.4373 11.544 14.0224 12.5456 13.284 13.284C12.5456 14.0224 11.544 14.4373 10.4998 14.4373C9.45547 14.4373 8.45395 14.0224 7.71552 13.284C6.9771 12.5456 6.56226 11.544 6.56226 10.4998Z"/>
</g>
<defs>
<clipPath id="clip0_19_97">
<rect width="21" height="21"/>
</clipPath>
</defs>
</svg>
