<svg width="32" height="26" viewBox="0 0 32 26" xmlns="http://www.w3.org/2000/svg">
<mask id="mask0_19_72" style="mask-type:alpha" maskUnits="userSpaceOnUse" x="0" y="0" width="32" height="26">
<rect width="32" height="26" />
</mask>
<g mask="url(#mask0_19_72)">
<path fill-rule="evenodd" clip-rule="evenodd" d="M15.202 0.321304C15.6414 -0.107101 16.355 -0.107101 16.7944 0.321304H16.7979L21.2973 4.70817C21.6171 5.02348 21.7156 5.49301 21.5398 5.90428C21.364 6.31554 20.9528 6.58287 20.4993 6.58287H11.5006C11.0437 6.58287 10.6359 6.31554 10.4602 5.90428C10.2844 5.49301 10.3793 5.02348 10.7027 4.70817L15.202 0.321304ZM23.1927 8.96402C23.1302 8.64109 22.9053 8.36691 22.5928 8.23896C22.2803 8.11101 21.9241 8.14757 21.6429 8.33645L16 12.1323L10.3571 8.33645C10.0759 8.14757 9.71966 8.11101 9.4072 8.23896C9.09475 8.36691 8.86978 8.64109 8.80729 8.96402L7.56372 15.5382L0.820945 16.7507C0.489743 16.8116 0.208534 17.031 0.0773028 17.3356C-0.0539282 17.6403 -0.0164336 17.9876 0.177288 18.2617L4.07046 23.7636H8.00116C8.00116 21.6952 8.84389 19.7115 10.344 18.249C11.844 16.7864 13.8786 15.9647 16 15.9647C18.1214 15.9647 20.156 16.7864 21.656 18.249C23.1561 19.7115 23.9988 21.6952 23.9988 23.7636H27.9295L31.8227 18.2556C32.0164 17.9815 32.0539 17.6342 31.9227 17.3295C31.7915 17.0249 31.5103 16.8055 31.1791 16.7446L24.4363 15.5382L23.1927 8.96402ZM31.9977 29.7522V29.8839C32.0008 29.84 32.0008 29.796 31.9977 29.7522ZM22.2776 39.3613H22.1418C22.1869 39.3643 22.2323 39.3644 22.2776 39.3613ZM9.85823 39.3613H9.72236C9.76766 39.3644 9.81306 39.3643 9.85823 39.3613ZM0.00231929 29.884V29.7521C-0.000767689 29.796 -0.000778496 29.84 0.00231929 29.884ZM0.00231934 25.1952C0.00231934 24.908 0.235131 24.6752 0.52232 24.6752H31.4777C31.7649 24.6752 31.9977 24.908 31.9977 25.1952C31.9977 25.4824 31.7649 25.7152 31.4777 25.7152H0.522321C0.235133 25.7152 0.00231934 25.4824 0.00231934 25.1952Z" />
</g>
</svg>
