<svg width="32" height="26" viewBox="0 0 32 26" xmlns="http://www.w3.org/2000/svg">
<mask id="mask0_19_82" style="mask-type:alpha" maskUnits="userSpaceOnUse" x="0" y="0" width="32" height="26">
<rect width="32" height="26" />
</mask>
<g mask="url(#mask0_19_82)">
<path fill-rule="evenodd" clip-rule="evenodd" d="M16.798 6.80855C16.3586 7.27421 15.645 7.27421 15.2056 6.80855H15.2021L10.7027 2.04022C10.3829 1.6975 10.2844 1.18714 10.4602 0.740104C10.636 0.293073 11.0472 0.0025024 11.5007 0.00250244L20.4994 0.00250328C20.9563 0.00250332 21.3641 0.293074 21.5398 0.740105C21.7156 1.18714 21.6207 1.6975 21.2973 2.04022L16.798 6.80855ZM23.1927 7.36647C23.1302 7.01547 22.9053 6.71745 22.5928 6.57837C22.2803 6.43929 21.9241 6.47903 21.6429 6.68433L16 10.8103L10.3571 6.68433C10.0759 6.47903 9.71966 6.43929 9.4072 6.57837C9.09475 6.71745 8.86978 7.01547 8.80729 7.36647L7.56372 14.5123L0.820945 15.8303C0.489743 15.8965 0.208534 16.1349 0.0773028 16.466C-0.0539282 16.7972 -0.0164336 17.1747 0.177288 17.4727L4.07048 23.453L4.07045 23.453H8.00116V23.453C8.00116 21.2047 8.84389 19.0486 10.344 17.4588C11.844 15.869 13.8786 14.9759 16 14.9759C18.1214 14.9759 20.156 15.869 21.656 17.4588C23.1561 19.0486 23.9988 21.2047 23.9988 23.453V23.453H27.9296L27.9295 23.453L31.8227 17.4661C32.0164 17.168 32.0539 16.7905 31.9227 16.4594C31.7915 16.1283 31.5103 15.8899 31.1791 15.8236L24.4363 14.5123L23.1927 7.36647ZM31.9978 29.9643V30.1035C32.0007 30.0571 32.0007 30.0106 31.9978 29.9643ZM22.2767 40.4071H22.1427C22.1873 40.4103 22.232 40.4103 22.2767 40.4071ZM9.85727 40.4071H9.72333C9.76799 40.4103 9.81273 40.4103 9.85727 40.4071ZM0.00244136 30.1075V29.9603C-0.000807946 30.0093 -0.000819618 30.0584 0.00244136 30.1075ZM0.00244141 25.0092C0.00244141 24.697 0.255498 24.4439 0.567659 24.4439H31.4326C31.7448 24.4439 31.9978 24.697 31.9978 25.0092C31.9978 25.3213 31.7448 25.5744 31.4326 25.5744H0.56766C0.255499 25.5744 0.00244141 25.3213 0.00244141 25.0092Z"/>
</g>
</svg>
