<svg width="43" height="43" viewBox="0 0 43 43" xmlns="http://www.w3.org/2000/svg">
<path fill-rule="evenodd" clip-rule="evenodd" d="M21.5 43C33.3741 43 43 33.3741 43 21.5C43 9.62588 33.3741 0 21.5 0C9.62588 0 0 9.62588 0 21.5C0 33.3741 9.62588 43 21.5 43ZM31.4941 11.7176C32.04 12.2362 32.208 13.017 31.9141 13.6952L23.2757 33.7554C22.9277 34.5647 22.0279 35.0263 21.1281 34.8553C20.2282 34.6844 19.5804 33.9378 19.5804 33.0659V23.0357H9.02232C8.10449 23.0357 7.31263 22.4202 7.13866 21.5654C6.9647 20.7106 7.44461 19.8557 8.29645 19.5252L29.4125 11.3187C30.1264 11.0395 30.9482 11.199 31.4941 11.7176Z" />
</svg>
